<?xml version="1.0" encoding="iso-8859-1"?>
<!-- Generator: Adobe Illustrator 19.0.0, SVG Export Plug-In . SVG Version: 6.00 Build 0)  -->
<svg version="1.1" id="Layer_1" xmlns="http://www.w3.org/2000/svg" xmlns:xlink="http://www.w3.org/1999/xlink" x="0px" y="0px"
	 viewBox="0 0 512 512" style="enable-background:new 0 0 512 512;" xml:space="preserve">
<path style="fill:#47CEAC;" d="M0,256.006C0,397.402,114.606,512.004,255.996,512C397.394,512.004,512,397.402,512,256.006
	C512.009,114.61,397.394,0,255.996,0C114.606,0,0,114.614,0,256.006z"/>
<path style="fill:#36BB9A;" d="M508.575,297.658c-0.24-0.235-88.31-88.45-88.874-88.874c-1.328-1.813-3.456-2.945-5.787-2.945
	h-40.207c-0.39-0.499-111.353-111.477-111.917-111.901c-1.328-1.815-3.458-2.946-5.791-2.946c-3.091,0-5.839,1.981-6.814,4.917
	l-36.485,109.93H98.085c-3.063,0-5.787,1.941-6.785,4.836c-0.999,2.895-0.052,6.102,2.358,7.99l0.379,0.297
	c0.34,0.423,86.766,86.769,86.812,86.822l-35.122,105.781c-0.981,2.965,0.06,6.218,2.599,8.069
	c0.423,0.554,89.659,89.659,89.668,89.665c0.415,0.547,0.89,1.058,1.465,1.478c0.01,0.006,0.019,0.009,0.029,0.015
	c0.188,0.249,0.447,0.442,0.663,0.67c5.246,0.32,10.518,0.535,15.845,0.535C383.205,512.003,488.677,419.23,508.575,297.658z"/>
<path style="fill:#F4F6F9;" d="M420.721,210.738c-0.981-2.927-3.723-4.9-6.806-4.9H299.299L262.813,95.909
	c-0.974-2.938-3.723-4.917-6.814-4.917c-3.091,0-5.839,1.98-6.814,4.917L212.7,205.839H98.085c-3.063,0-5.787,1.941-6.785,4.836
	c-0.998,2.895-0.052,6.102,2.358,7.991l92.146,72.193l-40.078,120.707c-0.981,2.965,0.06,6.218,2.579,8.061
	c1.262,0.918,2.748,1.381,4.234,1.381c1.483,0,2.969-0.455,4.227-1.374l99.282-72.333l99.247,70.686
	c2.527,1.808,5.92,1.788,8.412-0.063c2.499-1.829,3.536-5.061,2.576-8.005l-39.742-122.005l91.694-69.168
	C420.7,216.89,421.702,213.665,420.721,210.738z M313.809,279.546c-2.446,1.843-3.453,5.04-2.502,7.949l34.586,106.169
	l-85.729-61.055c-2.519-1.802-5.899-1.766-8.39,0.042l-85.367,62.197l34.618-104.255c0.954-2.881,0-6.043-2.387-7.914
	l-79.749-62.484h98.994c3.091,0,5.839-1.98,6.814-4.917L256,120.955l31.306,94.322c0.974,2.937,3.723,4.917,6.814,4.917h98.361
	L313.809,279.546z"/>
<g>
</g>
<g>
</g>
<g>
</g>
<g>
</g>
<g>
</g>
<g>
</g>
<g>
</g>
<g>
</g>
<g>
</g>
<g>
</g>
<g>
</g>
<g>
</g>
<g>
</g>
<g>
</g>
<g>
</g>
</svg>
